#!OML:ASF I:\Actors\actors\Patient Classification 1\Patient 1\Session 1\Subject1.ASF
:FULLY-SPECIFIED
:DEGREES
387
root 0.994391 17.4926 9.98966 7.03601 -5.16455 -10.5834
lowerback 1.69443 -3.27361 -3.72151
upperback -9.14062 -4.53759 2.26898
thorax -10.2044 -1.80357 4.97029
lowerneck -3.66077 -12.1247 -12.4492
upperneck 26.2957 -18.9852 10.8161
head 11.4039 -9.09801 3.59541
rclavicle -2.94201e-014 2.22639e-014
rhumerus -31.0552 -35.5225 -3.9617
rradius 155.944
rwrist -37.3921
rhand 7.05752 -27.8507
rfingers 7.12502
rthumb 32.3304 -54.9898
lclavicle -2.94201e-014 2.22639e-014
lhumerus -11.1698 -26.3479 59.188
lradius 135.103
lwrist 83.6915
lhand -26.7771 -13.5502
lfingers 7.12502
lthumb -0.204833 16.4295
rfemur -4.55486 19.7309 26.8524
rtibia 11.6651
rfoot -15.0195 -15.2591
rtoes -3.11227
lfemur 11.8882 -38.0607 -16.7411
ltibia -3.42473
lfoot -21.7875 49.9765
ltoes 9.50887
388
root 1.03287 17.4888 9.96208 6.98259 -5.44677 -10.719
lowerback 2.05903 -3.67862 -3.96161
upperback -9.04287 -5.10152 2.46817
thorax -10.2157 -2.05116 5.39177
lowerneck -3.31911 -12.7947 -13.2055
upperneck 25.5128 -19.9359 11.1992
head 11.3097 -9.59613 3.69842
rclavicle -2.52457e-014 3.18055e-015
rhumerus -31.2235 -34.0562 -8.27613
rradius 155.765
rwrist -37.1239
rhand 7.83091 -28.045
rfingers 7.12502
rthumb 33.0662 -55.0312
lclavicle -2.52457e-014 3.18055e-015
lhumerus -12.9867 -32.0382 65.8475
lradius 130.378
lwrist 77.2878
lhand -30.6213 -12.6832
lfingers 7.12502
lthumb -3.91743 17.2605
rfemur -4.64614 19.8253 26.8235
rtibia 11.6783
rfoot -14.7771 -15.1673
rtoes -3.74648
lfemur 11.8345 -37.7591 -16.6612
ltibia -3.4057
lfoot -21.8134 49.8647
ltoes 9.90984
389
root 1.07219 17.4868 9.93556 7.01073 -5.90636 -10.7233
lowerback 2.33361 -4.0661 -4.44722
upperback -8.96066 -5.6577 2.69471
thorax -10.1597 -2.27672 5.97324
lowerneck -2.94683 -13.435 -13.7158
upperneck 24.6055 -20.7787 11.3359
head 11.0973 -10.0477 3.69672
rclavicle 6.36111e-015 -1.43125e-014
rhumerus -30.7403 -33.114 -12.4366
rradius 155.402
rwrist -36.2853
rhand 9.45127 -28.1739
rfingers 7.12502
rthumb 34.6057 -54.8211
lclavicle 6.36111e-015 -1.43125e-014
lhumerus -14.4105 -36.9098 72.3737
lradius 125.056
lwrist 70.4402
lhand -33.6779 -12.8682
lfingers 7.12502
lthumb -6.86869 17.0004
rfemur -4.92199 19.909 26.5791
rtibia 11.811
rfoot -14.5444 -14.9049
rtoes -4.34708
lfemur 11.7931 -37.6039 -16.825
ltibia -3.37848
lfoot -21.9194 50.0703
ltoes 10.2179
390
root 1.11364 17.4868 9.91029 7.07207 -6.41388 -10.7085
lowerback 2.75457 -4.54505 -4.87142
upperback -8.92034 -6.34262 2.94187
thorax -10.2105 -2.56387 6.57372
lowerneck -2.85791 -13.9936 -14.3432
upperneck 23.8475 -21.5442 11.6836
head 11.0337 -10.4362 3.77243
rclavicle 5.76476e-015 4.21423e-014
rhumerus -29.7812 -32.2309 -16.8422
rradius 154.922
rwrist -34.0628
rhand 10.9686 -27.4631
rfingers 7.12502
rthumb 36.0444 -53.7687
lclavicle 5.76476e-015 4.21423e-014
lhumerus -15.4066 -40.679 78.3503
lradius 119.232
lwrist 64.3263
lhand -34.9597 -13.8295
lfingers 7.12502
lthumb -8.10588 15.9951
rfemur -5.24228 19.9896 26.3012
rtibia 11.9846
rfoot -14.3102 -14.5974
rtoes -4.73114
lfemur 11.7199 -37.4065 -16.999
ltibia -3.36001
lfoot -21.7631 50.2771
ltoes 10.3837
391
root 1.15613 17.489 9.88569 7.20731 -7.00726 -10.8267
lowerback 3.14921 -5.02721 -5.00175
upperback -8.85228 -7.01097 3.15087
thorax -10.2353 -2.87123 6.96687
lowerneck -2.921 -14.5322 -15.0284
upperneck 23.1512 -22.3518 12.328
head 11.0853 -10.8122 3.93113
rclavicle -3.10104e-014 -2.38542e-014
rhumerus -28.6943 -30.9947 -21.4388
rradius 154.514
rwrist -31.318
rhand 11.4251 -26.2755
rfingers 7.12502
rthumb 36.4767 -52.4735
lclavicle -3.10104e-014 -2.38542e-014
lhumerus -15.7289 -44.4189 83.297
lradius 114.204
lwrist 59.0944
lhand -35.4199 -14.4685
lfingers 7.12502
lthumb -8.54996 15.3384
rfemur -5.64177 20.1283 26.1554
rtibia 12.2021
rfoot -14.0577 -14.2771
rtoes -5.27361
lfemur 11.5724 -37.1154 -16.9487
ltibia -3.35726
lfoot -21.9089 50.3969
ltoes 11.0952
392
root 1.19831 17.4941 9.86418 7.44929 -7.79914 -11.0079
lowerback 3.19755 -5.36253 -5.04414
upperback -8.80385 -7.46879 3.20778
thorax -10.1284 -3.09829 7.08981
lowerneck -2.26525 -15.0487 -15.3898
upperneck 22.1325 -23.2069 13.0067
head 10.8624 -11.2333 4.10745
rclavicle 3.27995e-014 3.33958e-014
rhumerus -28.0735 -29.1852 -25.6425
rradius 154.344
rwrist -29.7673
rhand 11.2724 -25.7403
rfingers 7.12502
rthumb 36.3322 -51.9745
lclavicle 3.27995e-014 3.33958e-014
lhumerus -15.9266 -48.7612 87.6182
lradius 110.284
lwrist 54.6451
lhand -38.34 -9.86178
lfingers 7.12502
lthumb -11.3672 19.8101
rfemur -6.1431 20.3116 26.0386
rtibia 12.384
rfoot -13.7789 -13.8609
rtoes -5.86335
lfemur 11.4807 -36.9134 -16.9052
ltibia -3.41701
lfoot -22.46 50.7667
ltoes 12.1084
393
root 1.24064 17.5004 9.84845 7.78716 -8.663 -11.1489
lowerback 3.08849 -5.6281 -5.20388
upperback -8.87053 -7.8409 3.23275
thorax -10.0599 -3.2717 7.22494
lowerneck -1.17465 -15.4655 -15.5269
upperneck 21.016 -23.9792 13.7077
head 10.4954 -11.6356 4.31736
rclavicle -5.84427e-014 -1.82882e-014
rhumerus -27.7938 -26.7364 -29.3704
rradius 154.253
rwrist -29.5841
rhand 11.4169 -25.6029
rfingers 7.12502
rthumb 36.4689 -51.8028
lclavicle -5.84427e-014 -1.82882e-014
lhumerus -16.3513 -52.9886 91.8652
lradius 107.306
lwrist 51.8578
lhand -36.8318 -8.34464
lfingers 7.12502
lthumb -9.91238 21.402
rfemur -6.70764 20.451 25.843
rtibia 12.4881
rfoot -13.4395 -13.3914
rtoes -6.29855
lfemur 11.4284 -36.8671 -16.9713
ltibia -3.55442
lfoot -23.3675 51.325
ltoes 13.4901
